<svg xmlns="http://www.w3.org/2000/svg" viewBox="0 0 100 100"><rect width="100" height="100" rx="22" fill="#F5F0E8"/><path transform="translate(17.006 78.000) scale(0.089172 -0.089172)" fill="#2B2620" d="M538 0Q523 0 488.0 38.0Q453 76 403.5 147.5Q354 219 293 318L373 342Q454 221 511.5 148.5Q569 76 613.5 44.0Q658 12 699 12Q701 12 701.0 6.0Q701 0 699 0Q636 0 596.5 0.0Q557 0 538 0ZM311 628Q398 628 445.5 593.5Q493 559 493 499Q493 442 460.5 397.0Q428 352 376.5 327.0Q325 302 266 302Q254 302 240.0 302.5Q226 303 215 304V81Q215 52 220.0 37.0Q225 22 241.5 17.0Q258 12 290 12Q293 12 293.0 6.0Q293 0 290 0Q265 0 234.0 1.0Q203 2 166 2Q131 2 99.0 1.0Q67 0 42 0Q39 0 39.0 6.0Q39 12 42 12Q75 12 91.0 17.0Q107 22 113.0 37.0Q119 52 119 81V544Q119 573 113.5 587.5Q108 602 92.0 607.5Q76 613 43 613Q41 613 41.0 619.0Q41 625 43 625Q68 625 99.5 623.5Q131 622 166 622Q198 622 238.0 625.0Q278 628 311 628ZM394 464Q394 522 380.5 553.5Q367 585 343.0 597.0Q319 609 287 609Q248 609 231.5 594.5Q215 580 215 542V331Q229 329 245.0 328.0Q261 327 273 327Q340 327 367.0 360.5Q394 394 394 464Z"/></svg>